<?xml version="1.0" standalone="no"?>
<!DOCTYPE svg PUBLIC "-//W3C//DTD SVG 20010904//EN"
 "http://www.w3.org/TR/2001/REC-SVG-20010904/DTD/svg10.dtd">
<svg version="1.0" xmlns="http://www.w3.org/2000/svg"
 width="271.000000pt" height="119.000000pt" viewBox="0 0 271.000000 119.000000"
 preserveAspectRatio="xMidYMid meet">

<g transform="translate(0.000000,119.000000) scale(0.100000,-0.100000)"
fill="#000000" stroke="none">
<path d="M1630 635 c0 -15 3 -16 9 -7 5 8 21 12 37 10 l29 -3 0 -83 c0 -59 4
-82 13 -82 9 0 12 24 12 86 l0 86 35 -4 c19 -2 35 -1 35 3 0 4 -38 9 -85 11
-80 3 -85 2 -85 -17z"/>
<path d="M388 625 c-9 -21 -8 -28 8 -46 10 -12 32 -28 47 -36 22 -11 28 -20
25 -41 -4 -37 -49 -43 -72 -10 l-16 22 0 -22 c0 -26 40 -39 79 -26 19 7 27 17
29 41 3 28 -2 35 -38 58 -47 29 -58 49 -40 70 9 11 9 15 1 15 -6 0 -17 -11
-23 -25z"/>
<path d="M460 635 c7 -9 15 -13 17 -11 7 7 -7 26 -19 26 -6 0 -6 -6 2 -15z"/>
<path d="M533 643 c14 -4 17 -16 17 -73 0 -62 2 -70 26 -89 32 -25 73 -27 100
-5 18 15 18 15 -3 5 -33 -16 -61 -13 -83 9 -28 28 -30 146 -2 153 9 3 -3 5
-28 5 -25 0 -37 -2 -27 -5z"/>
<path d="M686 636 c10 -8 21 -11 24 -8 3 4 9 10 14 15 5 4 -6 7 -24 7 -32 0
-33 -1 -14 -14z"/>
<path d="M763 643 c14 -4 17 -17 17 -89 0 -61 3 -84 13 -84 9 0 11 12 9 40 -4
35 -1 40 16 40 11 0 32 -16 48 -37 34 -46 43 -53 69 -52 17 0 16 2 -7 14 -14
8 -36 31 -48 50 -21 33 -21 37 -6 54 39 43 12 71 -68 70 -34 -1 -53 -3 -43 -6z
m103 -28 c8 -31 -10 -55 -42 -55 -21 0 -24 5 -24 33 0 40 6 47 36 47 17 0 25
-7 30 -25z"/>
<path d="M973 643 c14 -4 17 -17 17 -88 0 -71 -3 -84 -17 -88 -10 -3 16 -4 57
-4 65 2 75 4 78 21 4 19 3 19 -13 2 -11 -11 -29 -16 -49 -14 -28 3 -31 7 -34
41 -3 36 -3 37 32 37 20 0 36 4 36 8 0 4 -16 6 -35 4 -35 -4 -35 -4 -35 37 0
40 1 41 33 41 18 0 38 -5 45 -12 9 -9 12 -8 12 5 0 15 -10 17 -72 16 -40 -1
-65 -3 -55 -6z"/>
<path d="M1173 643 c-7 -2 -13 -18 -13 -34 0 -22 9 -34 39 -55 43 -28 53 -45
45 -71 -5 -15 -3 -15 10 2 23 28 17 45 -28 75 -48 33 -62 56 -46 76 13 15 12
15 -7 7z"/>
<path d="M1234 634 c9 -8 16 -20 16 -26 0 -6 3 -9 6 -5 10 10 -7 47 -22 47
-13 0 -13 -2 0 -16z"/>
<path d="M1314 637 c15 -11 17 -25 14 -90 -2 -57 0 -77 10 -77 7 0 12 15 12
40 l0 40 55 0 55 0 0 -40 c0 -25 5 -40 13 -40 9 0 11 22 9 84 -3 75 -1 85 15
89 10 3 -2 5 -27 5 -25 0 -37 -2 -27 -5 12 -3 17 -15 17 -44 l0 -39 -55 0 -55
0 0 39 c0 29 5 41 18 44 9 3 -3 5 -27 6 -39 1 -43 -1 -27 -12z"/>
<path d="M1843 643 c14 -4 17 -17 17 -83 0 -65 -3 -81 -17 -89 -14 -8 1 -10
57 -8 72 2 75 3 78 27 l3 25 -16 -23 c-13 -17 -25 -22 -48 -20 -29 3 -32 7
-35 41 -3 36 -3 37 32 37 20 0 36 4 36 9 0 6 -16 7 -35 4 l-35 -6 0 42 c0 40
1 41 35 41 28 0 38 -5 45 -22 8 -22 9 -22 9 5 l1 27 -72 -1 c-40 -1 -65 -3
-55 -6z"/>
<path d="M2023 643 c15 -4 17 -18 17 -104 0 -55 -5 -110 -11 -122 -10 -21 -9
-21 10 2 18 20 21 37 21 117 0 78 3 95 18 103 13 8 7 10 -28 10 -25 -1 -37 -3
-27 -6z"/>
<path d="M2168 560 c-29 -70 -33 -90 -22 -90 8 0 13 4 9 9 -3 6 7 40 22 78
l27 68 32 -70 c18 -38 30 -73 28 -77 -3 -5 4 -8 15 -8 18 0 16 8 -22 90 -23
50 -44 90 -47 90 -3 0 -22 -41 -42 -90z"/>
<path d="M1150 503 c0 -25 27 -44 62 -42 19 1 18 3 -7 8 -17 3 -35 16 -42 31
-12 24 -13 24 -13 3z"/>
<path d="M807 323 c299 -2 787 -2 1085 0 299 1 55 2 -542 2 -597 0 -841 -1
-543 -2z"/>
</g>
</svg>
